<svg width="512" height="512" xmlns="http://www.w3.org/2000/svg" preserveAspectRatio="xMidYMid meet" version="1.0">

 <g>
  <title>Layer 1</title>
  <path stroke-width="0.1" fill="#6835bb" id="path4" d="m117.7,202.8l-15.1,0.5c-17.8,0.5 -22.2,1.8 -29.5,8.3c-5.2,4.6 -9.3,12 -10.5,18.6c-0.4,2 0,13.4 0.9,25.5c2.7,39.1 5.4,89.9 7.5,138.3c3.2,75.5 3.2,75.6 17.4,87.7c3.3,2.9 10.8,9.6 16.6,14.8c5.9,5.3 13.1,10.8 16.4,12.5l5.9,3l128.7,0l128.7,0l5.9,-3c3.3,-1.7 10.5,-7.2 16.4,-12.5c5.8,-5.2 13.3,-11.9 16.6,-14.8c6.9,-5.9 10,-9.9 11.9,-15.5c2.1,-6 3.4,-21.4 5,-61.2c2,-48.7 4,-86.5 7,-133.5l2.6,-39.1l-2.2,-6.9c-1.7,-5.7 -3,-7.8 -7.7,-12.5c-7.3,-7.3 -12.2,-9.1 -26.8,-9.7l-11.1,-0.5l-284.6,0zm252.6,1.2l-0.7,-4.6c-0.3,-2.6 -0.6,-7.3 -0.6,-10.5c0,-7.4 -2.5,-26.6 -5.1,-39.2c-5.5,-26.3 -17.3,-54.6 -30.7,-73.7c-6.2,-8.7 -20.3,-23.3 -27.7,-28.5c-7.8,-5.6 -16.3,-9.8 -25.5,-12.7c-10.8,-3.3 -29.2,-3.3 -40,0c-14.6,4.6 -27.3,12.4 -38.6,23.7c-29.4,29.4 -47.8,77.4 -50.9,132.7l-0.8,12.8l-10.5,0c0,0 219.71411,20.13367 231.1,0zm-91.6,-157.5c12.1,4 20.6,9.6 31.8,20.9c15.8,15.9 27.5,35.8 35.8,60.9c6.8,20.4 11.7,48.4 11.7,66.9l0,7.8l-98.4,0l-98.3,0l0.4,-9.3c3.2,-67.5 31.3,-124.6 70.8,-143.7c15.5,-7.5 30.7,-8.7 46.2,-3.5zm147.3,169.9c6.7,3.5 10.5,8.3 12,15.2c0.4,1.8 0.1,12.3 -0.6,23.5c-2.2,34.7 -5.3,91.1 -7.9,145.5c-1.4,28.6 -2.9,54.5 -3.5,57.4c-1.2,6.2 -2.8,9 -7.8,13.4c-2,1.7 -9.3,8.2 -16.2,14.4c-6.9,6.2 -14.3,12.1 -16.6,13.2c-4,2 -6.5,2 -129.4,2c-144.5,0 -127.9,1.3 -141.6,-11.3c-4.3,-4 -11.5,-10.4 -15.9,-14.1c-9.4,-8.1 -11.2,-10.5 -12.5,-17.4c-0.5,-2.9 -2.1,-28.7 -3.5,-57.4c-2.6,-55 -5.7,-111.6 -7.9,-145.7c-0.7,-11.2 -1,-21.7 -0.6,-23.5c2,-8.8 8.2,-14.9 17,-16.7c1.9,-0.4 77.3,-0.6 167.5,-0.5c158,0.1 164.1,0.2 167.5,2z"/>
  <g id="g174" fill="#ffffff" transform="matrix(0.03609085,0,0,-0.03643808,163.875,452.66739)"/>
 </g>
</svg>